<svg width="28" height="21" viewBox="0 0 28 21" fill="none" xmlns="http://www.w3.org/2000/svg">
<path d="M17.7598 10.0105C17.7598 11.0382 17.3515 12.0238 16.6248 12.7505C15.8981 13.4772 14.9125 13.8855 13.8848 13.8855C12.8571 13.8855 11.8714 13.4772 11.1447 12.7505C10.418 12.0238 10.0098 11.0382 10.0098 10.0105C10.0098 8.98278 10.418 7.99716 11.1447 7.27046C11.8714 6.54376 12.8571 6.1355 13.8848 6.1355C14.9125 6.1355 15.8981 6.54376 16.6248 7.27046C17.3515 7.99716 17.7598 8.98278 17.7598 10.0105Z" stroke="#A6A6A6" stroke-width="1.9375" stroke-linecap="round" stroke-linejoin="round"/>
<path d="M0.96875 10.0104C3.03542 4.71846 7.86108 0.96875 13.8854 0.96875C19.9098 0.96875 24.7354 4.71846 26.8021 10.0104C24.7354 15.3024 19.9098 19.0521 13.8854 19.0521C7.86108 19.0521 3.03542 15.3024 0.96875 10.0104Z" stroke="#A6A6A6" stroke-width="1.9375" stroke-linecap="round" stroke-linejoin="round"/>
</svg>
