<svg width="19" height="18" viewBox="0 0 19 18" fill="none" xmlns="http://www.w3.org/2000/svg">
<path d="M13.6938 5.84146L8.92899 10.26L5.75293 10.9967L6.54657 8.05074L11.3114 3.63149M13.6938 5.84146L11.3114 3.63149M13.6938 5.84146L16.4738 3.2642M11.3114 3.63149L14.0914 1.05492C14.302 0.859681 14.5876 0.75 14.8854 0.75C15.1832 0.75 15.4688 0.859681 15.6794 1.05492L16.4738 1.79158C16.6844 1.98688 16.8026 2.25174 16.8026 2.52789C16.8026 2.80405 16.6844 3.0689 16.4738 3.2642M16.4738 3.2642L17.2675 4.00017C17.3718 4.09688 17.4546 4.21172 17.5111 4.33812C17.5676 4.46452 17.5967 4.6 17.5967 4.73682C17.5967 4.87365 17.5676 5.00913 17.5111 5.13553C17.4546 5.26192 17.3718 5.37676 17.2675 5.47348L14.7885 7.77163" stroke="white" stroke-width="1.5" stroke-linecap="round" stroke-linejoin="round"/>
<path d="M14.2269 10.1228V15.3301C14.2269 15.6063 14.1086 15.8712 13.898 16.0665C13.6874 16.2618 13.4017 16.3715 13.1038 16.3715H1.87308C1.57522 16.3715 1.28956 16.2618 1.07894 16.0665C0.868324 15.8712 0.75 15.6063 0.75 15.3301V4.91548C0.75 4.63927 0.868324 4.37437 1.07894 4.17906C1.28956 3.98375 1.57522 3.87402 1.87308 3.87402H7.48846" stroke="white" stroke-width="1.5" stroke-linecap="round" stroke-linejoin="round"/>
</svg>
